<mxfile host="app.diagrams.net" agent="Mozilla/5.0 (Windows NT 10.0; Win64; x64) AppleWebKit/537.36 (KHTML, like Gecko) Chrome/127.0.0.0 Safari/537.36" version="24.7.7">
  <diagram id="yPxyJZ8AM_hMuL3Unpa9" name="complex gitflow">
    <mxGraphModel dx="779" dy="346" grid="1" gridSize="10" guides="1" tooltips="1" connect="1" arrows="1" fold="1" page="1" pageScale="1" pageWidth="827" pageHeight="1169" math="0" shadow="0">
      <root>
        <mxCell id="0" />
        <mxCell id="1" parent="0" />
        <mxCell id="JOfDeOOW8SHyUDtn-MuH-26" value="" style="dashed=1;rounded=0;whiteSpace=wrap;html=1;fillColor=none;" vertex="1" parent="1">
          <mxGeometry x="140" y="310" width="670" height="130" as="geometry" />
        </mxCell>
        <mxCell id="JOfDeOOW8SHyUDtn-MuH-1" value="Ohm.html" style="rounded=0;whiteSpace=wrap;html=1;" vertex="1" parent="1">
          <mxGeometry x="320" y="60" width="120" height="60" as="geometry" />
        </mxCell>
        <mxCell id="JOfDeOOW8SHyUDtn-MuH-2" value="views.py" style="rounded=0;whiteSpace=wrap;html=1;" vertex="1" parent="1">
          <mxGeometry x="320" y="230" width="120" height="60" as="geometry" />
        </mxCell>
        <mxCell id="JOfDeOOW8SHyUDtn-MuH-4" value="" style="shape=flexArrow;endArrow=classic;html=1;rounded=0;exitX=0.5;exitY=1;exitDx=0;exitDy=0;entryX=0.5;entryY=0;entryDx=0;entryDy=0;" edge="1" parent="1" source="JOfDeOOW8SHyUDtn-MuH-1" target="JOfDeOOW8SHyUDtn-MuH-2">
          <mxGeometry width="50" height="50" relative="1" as="geometry">
            <mxPoint x="520" y="310" as="sourcePoint" />
            <mxPoint x="570" y="260" as="targetPoint" />
          </mxGeometry>
        </mxCell>
        <mxCell id="JOfDeOOW8SHyUDtn-MuH-5" value="" style="endArrow=classic;html=1;rounded=0;" edge="1" parent="1">
          <mxGeometry width="50" height="50" relative="1" as="geometry">
            <mxPoint x="510" y="170" as="sourcePoint" />
            <mxPoint x="420" y="170" as="targetPoint" />
          </mxGeometry>
        </mxCell>
        <mxCell id="JOfDeOOW8SHyUDtn-MuH-6" value="parâmetros enviados consoante a escolha do utilizador" style="text;html=1;align=center;verticalAlign=middle;whiteSpace=wrap;rounded=0;" vertex="1" parent="1">
          <mxGeometry x="520" y="150" width="180" height="30" as="geometry" />
        </mxCell>
        <mxCell id="JOfDeOOW8SHyUDtn-MuH-7" value="" style="endArrow=classic;html=1;rounded=0;" edge="1" parent="1">
          <mxGeometry width="50" height="50" relative="1" as="geometry">
            <mxPoint x="540" y="90" as="sourcePoint" />
            <mxPoint x="450" y="90" as="targetPoint" />
          </mxGeometry>
        </mxCell>
        <mxCell id="JOfDeOOW8SHyUDtn-MuH-8" value="interface com o utilizador" style="text;html=1;align=center;verticalAlign=middle;whiteSpace=wrap;rounded=0;" vertex="1" parent="1">
          <mxGeometry x="550" y="75" width="140" height="30" as="geometry" />
        </mxCell>
        <mxCell id="JOfDeOOW8SHyUDtn-MuH-9" value="Vcc, R, parâmetros de medida (U ou I), OK ou STOP" style="text;html=1;align=center;verticalAlign=middle;whiteSpace=wrap;rounded=0;" vertex="1" parent="1">
          <mxGeometry x="150" y="150" width="220" height="30" as="geometry" />
        </mxCell>
        <mxCell id="JOfDeOOW8SHyUDtn-MuH-10" value="&lt;b&gt;configVB.py&lt;/b&gt;&lt;div&gt;&lt;font style=&quot;font-size: 9px;&quot;&gt;configVB.OK()&lt;/font&gt;&lt;/div&gt;&lt;div&gt;&lt;font style=&quot;font-size: 9px;&quot;&gt;configVB.STOP()&lt;/font&gt;&lt;/div&gt;" style="whiteSpace=wrap;html=1;rounded=0;align=center;" vertex="1" parent="1">
          <mxGeometry x="160" y="340" width="120" height="60" as="geometry" />
        </mxCell>
        <mxCell id="JOfDeOOW8SHyUDtn-MuH-12" value="" style="shape=flexArrow;endArrow=classic;html=1;rounded=0;entryX=0.5;entryY=0;entryDx=0;entryDy=0;exitX=0;exitY=0.5;exitDx=0;exitDy=0;" edge="1" parent="1" source="JOfDeOOW8SHyUDtn-MuH-2" target="JOfDeOOW8SHyUDtn-MuH-10">
          <mxGeometry width="50" height="50" relative="1" as="geometry">
            <mxPoint x="460" y="350" as="sourcePoint" />
            <mxPoint x="510" y="300" as="targetPoint" />
            <Array as="points">
              <mxPoint x="220" y="260" />
            </Array>
          </mxGeometry>
        </mxCell>
        <mxCell id="JOfDeOOW8SHyUDtn-MuH-13" value="" style="endArrow=classic;html=1;rounded=0;" edge="1" parent="1">
          <mxGeometry width="50" height="50" relative="1" as="geometry">
            <mxPoint x="160" y="280" as="sourcePoint" />
            <mxPoint x="200" y="280" as="targetPoint" />
          </mxGeometry>
        </mxCell>
        <mxCell id="JOfDeOOW8SHyUDtn-MuH-14" value="&lt;font style=&quot;font-size: 9px;&quot;&gt;OK&lt;/font&gt;" style="text;html=1;align=center;verticalAlign=middle;whiteSpace=wrap;rounded=0;" vertex="1" parent="1">
          <mxGeometry x="164" y="270" width="16" height="7" as="geometry" />
        </mxCell>
        <mxCell id="JOfDeOOW8SHyUDtn-MuH-15" value="" style="shape=flexArrow;endArrow=classic;html=1;rounded=0;entryX=1;entryY=0.5;entryDx=0;entryDy=0;exitX=0.25;exitY=1;exitDx=0;exitDy=0;" edge="1" parent="1" source="JOfDeOOW8SHyUDtn-MuH-2" target="JOfDeOOW8SHyUDtn-MuH-10">
          <mxGeometry width="50" height="50" relative="1" as="geometry">
            <mxPoint x="240" y="340" as="sourcePoint" />
            <mxPoint x="290" y="290" as="targetPoint" />
            <Array as="points">
              <mxPoint x="350" y="370" />
            </Array>
          </mxGeometry>
        </mxCell>
        <mxCell id="JOfDeOOW8SHyUDtn-MuH-16" value="&lt;font style=&quot;font-size: 9px;&quot;&gt;STOP&lt;/font&gt;" style="text;html=1;align=center;verticalAlign=middle;whiteSpace=wrap;rounded=0;" vertex="1" parent="1">
          <mxGeometry x="388" y="325" width="26" height="15" as="geometry" />
        </mxCell>
        <mxCell id="JOfDeOOW8SHyUDtn-MuH-17" value="" style="endArrow=classic;html=1;rounded=0;entryX=0;entryY=1;entryDx=0;entryDy=0;" edge="1" parent="1">
          <mxGeometry width="50" height="50" relative="1" as="geometry">
            <mxPoint x="414" y="340" as="sourcePoint" />
            <mxPoint x="364" y="340" as="targetPoint" />
          </mxGeometry>
        </mxCell>
        <mxCell id="JOfDeOOW8SHyUDtn-MuH-18" value="VirtualBench" style="whiteSpace=wrap;html=1;rounded=0;align=center;" vertex="1" parent="1">
          <mxGeometry x="180" y="485" width="80" height="30" as="geometry" />
        </mxCell>
        <mxCell id="JOfDeOOW8SHyUDtn-MuH-19" value="" style="shape=flexArrow;endArrow=classic;html=1;rounded=0;exitX=0.5;exitY=1;exitDx=0;exitDy=0;entryX=0.5;entryY=0;entryDx=0;entryDy=0;" edge="1" parent="1" source="JOfDeOOW8SHyUDtn-MuH-10" target="JOfDeOOW8SHyUDtn-MuH-18">
          <mxGeometry width="50" height="50" relative="1" as="geometry">
            <mxPoint x="210" y="310" as="sourcePoint" />
            <mxPoint x="260" y="260" as="targetPoint" />
          </mxGeometry>
        </mxCell>
        <mxCell id="JOfDeOOW8SHyUDtn-MuH-20" value="&lt;font style=&quot;font-size: 9px;&quot;&gt;configura o VB consoante&amp;nbsp;&lt;/font&gt;&lt;div&gt;&lt;font style=&quot;font-size: 9px;&quot;&gt;OK ou STOP&lt;/font&gt;&lt;/div&gt;" style="text;html=1;align=center;verticalAlign=middle;whiteSpace=wrap;rounded=0;" vertex="1" parent="1">
          <mxGeometry x="280" y="405" width="110" height="30" as="geometry" />
        </mxCell>
        <mxCell id="JOfDeOOW8SHyUDtn-MuH-21" value="" style="endArrow=classic;html=1;rounded=0;entryX=0;entryY=1;entryDx=0;entryDy=0;" edge="1" parent="1">
          <mxGeometry width="50" height="50" relative="1" as="geometry">
            <mxPoint x="285" y="420" as="sourcePoint" />
            <mxPoint x="235" y="420" as="targetPoint" />
            <Array as="points">
              <mxPoint x="260" y="420" />
            </Array>
          </mxGeometry>
        </mxCell>
        <mxCell id="JOfDeOOW8SHyUDtn-MuH-22" value="" style="shape=flexArrow;endArrow=classic;html=1;rounded=0;exitX=0;exitY=0.5;exitDx=0;exitDy=0;entryX=0;entryY=0.5;entryDx=0;entryDy=0;" edge="1" parent="1" source="JOfDeOOW8SHyUDtn-MuH-18" target="JOfDeOOW8SHyUDtn-MuH-1">
          <mxGeometry width="50" height="50" relative="1" as="geometry">
            <mxPoint x="210" y="310" as="sourcePoint" />
            <mxPoint x="260" y="260" as="targetPoint" />
            <Array as="points">
              <mxPoint x="90" y="500" />
              <mxPoint x="90" y="90" />
            </Array>
          </mxGeometry>
        </mxCell>
        <mxCell id="JOfDeOOW8SHyUDtn-MuH-23" value="&lt;b&gt;configVB.py&lt;/b&gt;&lt;div&gt;&lt;div style=&quot;text-align: left;&quot;&gt;&lt;span style=&quot;font-size: 9px; background-color: initial;&quot;&gt;configRelays.config_relays_ohm(R, U ou I)&lt;/span&gt;&lt;/div&gt;&lt;div style=&quot;text-align: left; line-height: 19px;&quot;&gt;&lt;font style=&quot;font-size: 9px;&quot;&gt;measurement_result = configVB.test_parameters(Vcc, R, U ou I)&lt;/font&gt;&lt;/div&gt;&lt;/div&gt;" style="whiteSpace=wrap;html=1;rounded=0;align=center;" vertex="1" parent="1">
          <mxGeometry x="475" y="340" width="270" height="60" as="geometry" />
        </mxCell>
        <mxCell id="JOfDeOOW8SHyUDtn-MuH-28" value="" style="shape=flexArrow;endArrow=classic;html=1;rounded=0;entryX=0.5;entryY=0;entryDx=0;entryDy=0;exitX=1;exitY=0.5;exitDx=0;exitDy=0;" edge="1" parent="1" source="JOfDeOOW8SHyUDtn-MuH-2" target="JOfDeOOW8SHyUDtn-MuH-23">
          <mxGeometry width="50" height="50" relative="1" as="geometry">
            <mxPoint x="360" y="310" as="sourcePoint" />
            <mxPoint x="410" y="260" as="targetPoint" />
            <Array as="points">
              <mxPoint x="610" y="260" />
            </Array>
          </mxGeometry>
        </mxCell>
        <mxCell id="JOfDeOOW8SHyUDtn-MuH-29" value="" style="endArrow=classic;html=1;rounded=0;entryX=0;entryY=1;entryDx=0;entryDy=0;" edge="1" parent="1">
          <mxGeometry width="50" height="50" relative="1" as="geometry">
            <mxPoint x="680" y="270.17" as="sourcePoint" />
            <mxPoint x="630" y="270.17" as="targetPoint" />
          </mxGeometry>
        </mxCell>
        <mxCell id="JOfDeOOW8SHyUDtn-MuH-30" value="&lt;font style=&quot;font-size: 9px;&quot;&gt;Vcc, R, parâmetros de medida (U ou I)&lt;/font&gt;" style="text;html=1;align=center;verticalAlign=middle;whiteSpace=wrap;rounded=0;" vertex="1" parent="1">
          <mxGeometry x="631" y="253" width="160" height="10" as="geometry" />
        </mxCell>
        <mxCell id="JOfDeOOW8SHyUDtn-MuH-31" value="ConfigRelays.py" style="whiteSpace=wrap;html=1;rounded=0;align=center;" vertex="1" parent="1">
          <mxGeometry x="492" y="483" width="100" height="30" as="geometry" />
        </mxCell>
        <mxCell id="JOfDeOOW8SHyUDtn-MuH-32" value="" style="shape=flexArrow;endArrow=classic;html=1;rounded=0;entryX=0.5;entryY=0;entryDx=0;entryDy=0;exitX=0.25;exitY=1;exitDx=0;exitDy=0;" edge="1" parent="1" source="JOfDeOOW8SHyUDtn-MuH-23" target="JOfDeOOW8SHyUDtn-MuH-31">
          <mxGeometry width="50" height="50" relative="1" as="geometry">
            <mxPoint x="470" y="460" as="sourcePoint" />
            <mxPoint x="520" y="410" as="targetPoint" />
          </mxGeometry>
        </mxCell>
        <mxCell id="JOfDeOOW8SHyUDtn-MuH-33" value="" style="endArrow=classic;html=1;rounded=0;exitX=0.774;exitY=0.846;exitDx=0;exitDy=0;exitPerimeter=0;entryX=0.677;entryY=0.846;entryDx=0;entryDy=0;entryPerimeter=0;" edge="1" parent="1">
          <mxGeometry width="50" height="50" relative="1" as="geometry">
            <mxPoint x="625.9900000000001" y="419.00000000000006" as="sourcePoint" />
            <mxPoint x="560.9999999999999" y="419.00000000000006" as="targetPoint" />
          </mxGeometry>
        </mxCell>
        <mxCell id="JOfDeOOW8SHyUDtn-MuH-34" value="&lt;font style=&quot;font-size: 9px;&quot;&gt;Envia os parâmetros escolhidos pelo utilizador - R e Vcc&lt;/font&gt;" style="text;html=1;align=left;verticalAlign=middle;whiteSpace=wrap;rounded=0;" vertex="1" parent="1">
          <mxGeometry x="622" y="405" width="138" height="30" as="geometry" />
        </mxCell>
        <mxCell id="JOfDeOOW8SHyUDtn-MuH-35" value="" style="endArrow=classic;html=1;rounded=0;exitX=0.774;exitY=0.846;exitDx=0;exitDy=0;exitPerimeter=0;entryX=0.677;entryY=0.846;entryDx=0;entryDy=0;entryPerimeter=0;" edge="1" parent="1">
          <mxGeometry width="50" height="50" relative="1" as="geometry">
            <mxPoint x="674.9900000000001" y="497.72" as="sourcePoint" />
            <mxPoint x="609.9999999999999" y="497.72" as="targetPoint" />
          </mxGeometry>
        </mxCell>
        <mxCell id="JOfDeOOW8SHyUDtn-MuH-36" value="&lt;font style=&quot;font-size: 9px;&quot;&gt;Envia a respectiva string consoante os parâmetros recebidos&lt;/font&gt;" style="text;html=1;align=left;verticalAlign=middle;whiteSpace=wrap;rounded=0;" vertex="1" parent="1">
          <mxGeometry x="622" y="462" width="154" height="30" as="geometry" />
        </mxCell>
        <mxCell id="JOfDeOOW8SHyUDtn-MuH-37" value="RaspberryPI" style="whiteSpace=wrap;html=1;rounded=0;align=center;" vertex="1" parent="1">
          <mxGeometry x="340" y="570" width="80" height="30" as="geometry" />
        </mxCell>
        <mxCell id="JOfDeOOW8SHyUDtn-MuH-38" value="" style="shape=flexArrow;endArrow=classic;html=1;rounded=0;entryX=1;entryY=0.5;entryDx=0;entryDy=0;exitX=0.5;exitY=1;exitDx=0;exitDy=0;" edge="1" parent="1" source="JOfDeOOW8SHyUDtn-MuH-31" target="JOfDeOOW8SHyUDtn-MuH-37">
          <mxGeometry width="50" height="50" relative="1" as="geometry">
            <mxPoint x="510" y="560" as="sourcePoint" />
            <mxPoint x="560" y="510" as="targetPoint" />
            <Array as="points">
              <mxPoint x="542" y="585" />
            </Array>
          </mxGeometry>
        </mxCell>
        <mxCell id="JOfDeOOW8SHyUDtn-MuH-39" value="" style="endArrow=classic;html=1;rounded=0;exitX=0.774;exitY=0.846;exitDx=0;exitDy=0;exitPerimeter=0;entryX=0.677;entryY=0.846;entryDx=0;entryDy=0;entryPerimeter=0;" edge="1" parent="1">
          <mxGeometry width="50" height="50" relative="1" as="geometry">
            <mxPoint x="626.0000000000001" y="570" as="sourcePoint" />
            <mxPoint x="561.0099999999999" y="570" as="targetPoint" />
          </mxGeometry>
        </mxCell>
        <mxCell id="JOfDeOOW8SHyUDtn-MuH-40" value="Envia a string via SOCKET e aguarda por confirmação" style="text;html=1;align=center;verticalAlign=middle;whiteSpace=wrap;rounded=0;" vertex="1" parent="1">
          <mxGeometry x="580" y="535" width="194" height="30" as="geometry" />
        </mxCell>
        <mxCell id="JOfDeOOW8SHyUDtn-MuH-42" value="Matriz LaRE" style="whiteSpace=wrap;html=1;rounded=0;align=center;" vertex="1" parent="1">
          <mxGeometry x="340" y="680" width="80" height="30" as="geometry" />
        </mxCell>
        <mxCell id="JOfDeOOW8SHyUDtn-MuH-43" value="" style="shape=flexArrow;endArrow=classic;html=1;rounded=0;entryX=0.5;entryY=0;entryDx=0;entryDy=0;exitX=0.5;exitY=1;exitDx=0;exitDy=0;" edge="1" parent="1" source="JOfDeOOW8SHyUDtn-MuH-37" target="JOfDeOOW8SHyUDtn-MuH-42">
          <mxGeometry width="50" height="50" relative="1" as="geometry">
            <mxPoint x="280" y="560" as="sourcePoint" />
            <mxPoint x="330" y="510" as="targetPoint" />
          </mxGeometry>
        </mxCell>
        <mxCell id="JOfDeOOW8SHyUDtn-MuH-44" value="" style="endArrow=classic;html=1;rounded=0;exitX=0.774;exitY=0.846;exitDx=0;exitDy=0;exitPerimeter=0;entryX=0.677;entryY=0.846;entryDx=0;entryDy=0;entryPerimeter=0;" edge="1" parent="1">
          <mxGeometry width="50" height="50" relative="1" as="geometry">
            <mxPoint x="464.9900000000001" y="640" as="sourcePoint" />
            <mxPoint x="399.9999999999999" y="640" as="targetPoint" />
          </mxGeometry>
        </mxCell>
        <mxCell id="JOfDeOOW8SHyUDtn-MuH-45" value="Activa os relés" style="text;html=1;align=center;verticalAlign=middle;whiteSpace=wrap;rounded=0;" vertex="1" parent="1">
          <mxGeometry x="470" y="630" width="100" height="20" as="geometry" />
        </mxCell>
        <mxCell id="JOfDeOOW8SHyUDtn-MuH-46" value="" style="shape=flexArrow;endArrow=classic;html=1;rounded=0;entryX=0;entryY=0.5;entryDx=0;entryDy=0;exitX=0;exitY=0.5;exitDx=0;exitDy=0;" edge="1" parent="1" source="JOfDeOOW8SHyUDtn-MuH-31" target="JOfDeOOW8SHyUDtn-MuH-23">
          <mxGeometry width="50" height="50" relative="1" as="geometry">
            <mxPoint x="330" y="470" as="sourcePoint" />
            <mxPoint x="380" y="420" as="targetPoint" />
            <Array as="points">
              <mxPoint x="441" y="498" />
              <mxPoint x="440" y="430" />
              <mxPoint x="440" y="370" />
            </Array>
          </mxGeometry>
        </mxCell>
        <mxCell id="JOfDeOOW8SHyUDtn-MuH-47" value="" style="endArrow=classic;html=1;rounded=0;" edge="1" parent="1">
          <mxGeometry width="50" height="50" relative="1" as="geometry">
            <mxPoint x="384" y="499.67" as="sourcePoint" />
            <mxPoint x="424" y="499.67" as="targetPoint" />
          </mxGeometry>
        </mxCell>
        <mxCell id="JOfDeOOW8SHyUDtn-MuH-48" value="&lt;font style=&quot;font-size: 9px;&quot;&gt;Após confirmação de envio, retorna ao script&lt;/font&gt;" style="text;html=1;align=center;verticalAlign=middle;whiteSpace=wrap;rounded=0;" vertex="1" parent="1">
          <mxGeometry x="322" y="462" width="98" height="30" as="geometry" />
        </mxCell>
      </root>
    </mxGraphModel>
  </diagram>
</mxfile>
